<svg width="72" height="72" viewBox="0 0 72 72" fill="none" xmlns="http://www.w3.org/2000/svg">
<path fill-rule="evenodd" clip-rule="evenodd" d="M30.9722 0.999936H40.9631C57.5168 0.999936 70.9362 14.4311 70.9362 30.9999V40.9999C70.9362 57.5682 57.5168 70.9998 40.9631 70.9998H30.9722C14.4185 70.9998 0.999039 57.5682 0.999039 40.9999V30.9999C0.999039 14.4311 14.4185 0.999936 30.9722 0.999936Z" fill="#FF4361"/>
<path fill-rule="evenodd" clip-rule="evenodd" d="M30.9722 0.999936H40.9631C57.5168 0.999936 70.9362 14.4311 70.9362 30.9999V40.9999C70.9362 57.5682 57.5168 70.9998 40.9631 70.9998H30.9722C14.4185 70.9998 0.999039 57.5682 0.999039 40.9999V30.9999C0.999039 14.4311 14.4185 0.999936 30.9722 0.999936Z" fill="url(#paint0_linear_1_29)"/>
<path fill-rule="evenodd" clip-rule="evenodd" d="M44.908 31.0026C44.8164 30.7972 44.6193 30.6655 44.4021 30.6655H37.7861L44.3156 19.894C44.4244 19.7144 44.4311 19.487 44.3329 19.3015C44.2347 19.1144 44.047 18.9988 43.8437 18.9988H34.9107C34.6992 18.9988 34.5059 19.1236 34.411 19.3214L26.0363 36.8214C25.9498 37.0021 25.9593 37.2166 26.0608 37.3886C26.163 37.5607 26.3422 37.665 26.536 37.665H32.2772L26.0212 53.1891C25.9146 53.4547 26.0095 53.7623 26.2445 53.9133C26.3349 53.9703 26.4354 53.9988 26.5354 53.9988C26.6956 53.9988 26.8536 53.9268 26.9631 53.7918L44.8292 31.6252C44.9694 31.4515 44.9995 31.2085 44.908 31.0026Z" fill="white"/>
<defs>
<linearGradient id="paint0_linear_1_29" x1="41.3761" y1="113.413" x2="113.385" y2="30.6507" gradientUnits="userSpaceOnUse">
<stop stop-color="#F80759"/>
<stop offset="1" stop-color="#BC4E9C"/>
</linearGradient>
</defs>
</svg>
