<svg width="73" height="72" viewBox="0 0 73 72" fill="none" xmlns="http://www.w3.org/2000/svg">
<path fill-rule="evenodd" clip-rule="evenodd" d="M31.2089 0.999936H41.2C57.7537 0.999936 71.1731 14.4311 71.1731 30.9999V40.9999C71.1731 57.5682 57.7537 70.9998 41.2 70.9998H31.2089C14.6552 70.9998 1.23583 57.5682 1.23583 40.9999V30.9999C1.23583 14.4311 14.6552 0.999936 31.2089 0.999936Z" fill="#FF4361"/>
<path fill-rule="evenodd" clip-rule="evenodd" d="M31.2089 0.999936H41.2C57.7537 0.999936 71.1731 14.4311 71.1731 30.9999V40.9999C71.1731 57.5682 57.7537 70.9998 41.2 70.9998H31.2089C14.6552 70.9998 1.23583 57.5682 1.23583 40.9999V30.9999C1.23583 14.4311 14.6552 0.999936 31.2089 0.999936Z" fill="url(#paint0_linear_1_58)"/>
<path fill-rule="evenodd" clip-rule="evenodd" d="M49.2926 22.9994H26.1135C24.5198 22.9994 23.216 24.3037 23.216 25.8988V51.9988L29.0108 46.1988H49.2926C50.8862 46.1988 52.19 44.894 52.19 43.2988V25.8988C52.19 24.3037 50.8862 22.9994 49.2926 22.9994Z" fill="#FEFAFC"/>
<defs>
<linearGradient id="paint0_linear_1_58" x1="41.6129" y1="113.413" x2="113.622" y2="30.6507" gradientUnits="userSpaceOnUse">
<stop stop-color="#F46B45"/>
<stop offset="1" stop-color="#EEA849"/>
</linearGradient>
</defs>
</svg>
