<svg width="73" height="72" viewBox="0 0 73 72" fill="none" xmlns="http://www.w3.org/2000/svg">
<path fill-rule="evenodd" clip-rule="evenodd" d="M31.4652 0.999936H41.4564C58.0101 0.999936 71.4295 14.4311 71.4295 30.9999V40.9999C71.4295 57.5682 58.0101 70.9998 41.4564 70.9998H31.4652C14.9116 70.9998 1.4922 57.5682 1.4922 40.9999V30.9999C1.4922 14.4311 14.9116 0.999936 31.4652 0.999936Z" fill="#FF4361"/>
<path fill-rule="evenodd" clip-rule="evenodd" d="M31.4652 0.999936H41.4564C58.0101 0.999936 71.4295 14.4311 71.4295 30.9999V40.9999C71.4295 57.5682 58.0101 70.9998 41.4564 70.9998H31.4652C14.9116 70.9998 1.4922 57.5682 1.4922 40.9999V30.9999C1.4922 14.4311 14.9116 0.999936 31.4652 0.999936Z" fill="url(#paint0_linear_1_48)"/>
<path fill-rule="evenodd" clip-rule="evenodd" d="M53.9886 31.8585C53.9943 31.9607 53.9869 32.0644 53.9614 32.1687L51.6811 41.3348C51.5661 41.7961 51.1543 42.1214 50.6809 42.1241L36.9996 42.1934C36.9979 42.1934 36.9962 42.1934 36.9944 42.1934H23.3131C22.8371 42.1934 22.4224 41.8671 22.3075 41.4031L20.0273 32.202C20.0009 32.0956 19.9934 31.9886 20.0001 31.8838C19.1179 31.6047 18.4764 30.7752 18.4764 29.7977C18.4764 28.5908 19.4527 27.6096 20.6529 27.6096C21.8531 27.6096 22.8294 28.5908 22.8294 29.7977C22.8294 30.4768 22.5197 31.0843 22.0348 31.4864L24.8896 34.3768C25.6112 35.1074 26.6123 35.5268 27.6366 35.5268C28.8478 35.5268 30.0025 34.9483 30.7297 33.98L35.4214 27.7321C35.0273 27.3365 34.7832 26.7897 34.7832 26.1865C34.7832 24.98 35.7595 23.9983 36.9597 23.9983C38.1599 23.9983 39.1363 24.98 39.1363 26.1865C39.1363 26.7714 38.9052 27.302 38.5317 27.695C38.5329 27.6967 38.5345 27.6983 38.5357 27.6999L43.1933 33.9649C43.9203 34.9424 45.0791 35.5268 46.2937 35.5268C47.3275 35.5268 48.2996 35.1219 49.0304 34.3875L51.9032 31.4999C51.4081 31.0983 51.09 30.4854 51.09 29.7977C51.09 28.5908 52.0664 27.6096 53.2666 27.6096C54.4668 27.6096 55.4432 28.5908 55.4432 29.7977C55.4432 30.7488 54.8344 31.5585 53.9886 31.8585ZM51.4586 45.4569C51.4586 44.8821 50.9945 44.4155 50.4222 44.4155H23.6126C23.0402 44.4155 22.5761 44.8821 22.5761 45.4569V47.9569C22.5761 48.5327 23.0402 48.9988 23.6126 48.9988H50.4222C50.9945 48.9988 51.4586 48.5327 51.4586 47.9569V45.4569Z" fill="white"/>
<defs>
<linearGradient id="paint0_linear_1_48" x1="41.8693" y1="113.413" x2="113.878" y2="30.6507" gradientUnits="userSpaceOnUse">
<stop stop-color="#FF5858"/>
<stop offset="1" stop-color="#F857A6"/>
</linearGradient>
</defs>
</svg>
