<svg width="73" height="72" viewBox="0 0 73 72" fill="none" xmlns="http://www.w3.org/2000/svg">
<path fill-rule="evenodd" clip-rule="evenodd" d="M31.7202 0.999936H41.7112C58.2649 0.999936 71.6843 14.4311 71.6843 30.9999V40.9999C71.6843 57.5682 58.2649 70.9998 41.7112 70.9998H31.7202C15.1666 70.9998 1.74716 57.5682 1.74716 40.9999V30.9999C1.74716 14.4311 15.1666 0.999936 31.7202 0.999936Z" fill="#FF4361"/>
<path fill-rule="evenodd" clip-rule="evenodd" d="M31.7202 0.999936H41.7112C58.2649 0.999936 71.6843 14.4311 71.6843 30.9999V40.9999C71.6843 57.5682 58.2649 70.9998 41.7112 70.9998H31.7202C15.1666 70.9998 1.74716 57.5682 1.74716 40.9999V30.9999C1.74716 14.4311 15.1666 0.999936 31.7202 0.999936Z" fill="url(#paint0_linear_1_36)"/>
<path fill-rule="evenodd" clip-rule="evenodd" d="M40.144 41.6371C40.3558 41.422 40.4618 41.1682 40.4618 40.8747V38.1661H51.7015V46.2925C51.7015 47.0365 51.4396 47.6747 50.9154 48.2048C50.3914 48.7354 49.7613 49.0005 49.0255 49.0005H24.4047C23.6687 49.0005 23.0386 48.7354 22.5146 48.2048C21.9903 47.6747 21.7284 47.0365 21.7284 46.2925V38.1661H32.9683V40.8747C32.9683 41.1682 33.0743 41.422 33.2862 41.6371C33.498 41.851 33.7489 41.9586 34.039 41.9586H39.3912C39.6811 41.9586 39.9322 41.851 40.144 41.6371ZM38.8561 38.1661H34.5739V40.3328H38.8561V38.1661ZM50.9154 28.1274C50.3914 27.5962 49.7613 27.3312 49.0255 27.3312H43.1376V24.6226C43.1376 24.171 42.9817 23.7876 42.6693 23.471C42.3574 23.1559 41.978 22.9973 41.5322 22.9973H31.898C31.4519 22.9973 31.0729 23.1559 30.7607 23.471C30.4484 23.7871 30.2923 24.171 30.2923 24.6226V27.3312H24.4047C23.6687 27.3312 23.0386 27.5962 22.5146 28.1274C21.9903 28.657 21.7284 29.2946 21.7284 30.0398V36.5408H51.7015V30.0398C51.7015 29.2946 51.4396 28.657 50.9154 28.1274ZM40.9969 27.3312H32.4332V25.164H40.9969V27.3312Z" fill="white"/>
<defs>
<linearGradient id="paint0_linear_1_36" x1="42.1242" y1="113.413" x2="114.133" y2="30.6507" gradientUnits="userSpaceOnUse">
<stop stop-color="#FF416C"/>
<stop offset="1" stop-color="#FF4B2B"/>
</linearGradient>
</defs>
</svg>
