<svg width="72" height="73" viewBox="0 0 72 73" fill="none" xmlns="http://www.w3.org/2000/svg">
<path fill-rule="evenodd" clip-rule="evenodd" d="M30.9997 1.99868H40.9997C57.5682 1.99868 70.9997 15.4299 70.9997 31.9986V41.9986C70.9997 58.5669 57.5682 71.9986 40.9997 71.9986H30.9997C14.4312 71.9986 0.999692 58.5669 0.999692 41.9986V31.9986C0.999692 15.4299 14.4312 1.99868 30.9997 1.99868Z" fill="white"/>
<path d="M28.0898 50.2987C26.4098 50.2987 24.9898 49.8387 23.8298 48.9187C22.6898 47.9787 21.8298 46.6987 21.2498 45.0787C20.6698 43.4587 20.3798 41.5987 20.3798 39.4987C20.3798 37.3987 20.6698 35.5387 21.2498 33.9187C21.8298 32.2987 22.6898 31.0287 23.8298 30.1087C24.9898 29.1687 26.4098 28.6987 28.0898 28.6987C29.7898 28.6987 31.2098 29.1687 32.3498 30.1087C33.4898 31.0287 34.3498 32.2987 34.9298 33.9187C35.5298 35.5387 35.8298 37.3987 35.8298 39.4987C35.8298 41.5987 35.5298 43.4587 34.9298 45.0787C34.3498 46.6987 33.4898 47.9787 32.3498 48.9187C31.2098 49.8387 29.7898 50.2987 28.0898 50.2987ZM28.0898 47.3587C29.5298 47.3587 30.6498 46.6787 31.4498 45.3187C32.2698 43.9587 32.6798 42.0187 32.6798 39.4987C32.6798 36.9787 32.2698 35.0387 31.4498 33.6787C30.6498 32.3187 29.5298 31.6387 28.0898 31.6387C26.6498 31.6387 25.5198 32.3187 24.6998 33.6787C23.8998 35.0387 23.4998 36.9787 23.4998 39.4987C23.4998 42.0187 23.8998 43.9587 24.6998 45.3187C25.5198 46.6787 26.6498 47.3587 28.0898 47.3587ZM47.7824 49.9987V44.2987H39.5024L38.1224 41.5987L48.4124 28.9987H50.9024V41.3287H54.5624V44.2987H50.9024V49.9987H47.7824ZM41.9324 41.3287H47.7824V34.1887L41.9324 41.3287Z" fill="#EA3A60"/>
</svg>
