<svg width="72" height="73" viewBox="0 0 72 73" fill="none" xmlns="http://www.w3.org/2000/svg">
<path fill-rule="evenodd" clip-rule="evenodd" d="M30.9997 1.99868H40.9997C57.5682 1.99868 70.9997 15.4299 70.9997 31.9986V41.9986C70.9997 58.5669 57.5682 71.9986 40.9997 71.9986H30.9997C14.4312 71.9986 0.999692 58.5669 0.999692 41.9986V31.9986C0.999692 15.4299 14.4312 1.99868 30.9997 1.99868Z" fill="white"/>
<path d="M28.0898 50.2987C26.4098 50.2987 24.9898 49.8387 23.8298 48.9187C22.6898 47.9787 21.8298 46.6987 21.2498 45.0787C20.6698 43.4587 20.3798 41.5987 20.3798 39.4987C20.3798 37.3987 20.6698 35.5387 21.2498 33.9187C21.8298 32.2987 22.6898 31.0287 23.8298 30.1087C24.9898 29.1687 26.4098 28.6987 28.0898 28.6987C29.7898 28.6987 31.2098 29.1687 32.3498 30.1087C33.4898 31.0287 34.3498 32.2987 34.9298 33.9187C35.5298 35.5387 35.8298 37.3987 35.8298 39.4987C35.8298 41.5987 35.5298 43.4587 34.9298 45.0787C34.3498 46.6987 33.4898 47.9787 32.3498 48.9187C31.2098 49.8387 29.7898 50.2987 28.0898 50.2987ZM28.0898 47.3587C29.5298 47.3587 30.6498 46.6787 31.4498 45.3187C32.2698 43.9587 32.6798 42.0187 32.6798 39.4987C32.6798 36.9787 32.2698 35.0387 31.4498 33.6787C30.6498 32.3187 29.5298 31.6387 28.0898 31.6387C26.6498 31.6387 25.5198 32.3187 24.6998 33.6787C23.8998 35.0387 23.4998 36.9787 23.4998 39.4987C23.4998 42.0187 23.8998 43.9587 24.6998 45.3187C25.5198 46.6787 26.6498 47.3587 28.0898 47.3587ZM40.3424 44.2687C40.6424 44.7087 41.0024 45.1787 41.4224 45.6787C41.8624 46.1787 42.3724 46.5987 42.9524 46.9387C43.5524 47.2787 44.2324 47.4487 44.9924 47.4487C45.5924 47.4487 46.1924 47.2987 46.7924 46.9987C47.3924 46.6787 47.8924 46.2187 48.2924 45.6187C48.7124 44.9987 48.9224 44.2487 48.9224 43.3687C48.9224 42.4687 48.7524 41.7487 48.4124 41.2087C48.0924 40.6687 47.6624 40.2787 47.1224 40.0387C46.5824 39.7987 45.9924 39.6787 45.3524 39.6787C44.7324 39.6787 44.1024 39.7787 43.4624 39.9787C42.8424 40.1587 42.2624 40.3587 41.7224 40.5787L40.8224 38.2087L46.4624 31.9987H38.9924V28.9987H51.0224L51.6224 30.1987L45.7424 36.7087C46.9024 36.7087 47.9524 36.9987 48.8924 37.5787C49.8524 38.1387 50.6124 38.9087 51.1724 39.8887C51.7524 40.8687 52.0424 41.9687 52.0424 43.1887C52.0424 44.6287 51.6924 45.8887 50.9924 46.9687C50.3124 48.0287 49.4124 48.8487 48.2924 49.4287C47.1924 50.0087 46.0124 50.2987 44.7524 50.2987C43.5724 50.2987 42.5524 50.1087 41.6924 49.7287C40.8524 49.3287 40.1224 48.7887 39.5024 48.1087C38.8824 47.4287 38.3224 46.6787 37.8224 45.8587L40.3424 44.2687Z" fill="#EA3A60"/>
</svg>
